<?xml version="1.0" encoding="utf-8"?>
<!-- Generator: Adobe Illustrator 23.0.3, SVG Export Plug-In . SVG Version: 6.00 Build 0)  -->
<svg version="1.1" id="Layer_1" xmlns="http://www.w3.org/2000/svg" xmlns:xlink="http://www.w3.org/1999/xlink" x="0px" y="0px"
	 viewBox="0 0 512 512" style="enable-background:new 0 0 512 512;" xml:space="preserve">
<style type="text/css">
	.st0{fill:#FFFFFF;}
</style>
<path class="st0" d="M122.4,189.8c0-3.9-3.1-7-7-7c-43,0.1-77.8,34.9-77.8,77.8c0,3.9,3.1,7,7,7s7-3.1,7-7
	c0-35.2,28.6-63.8,63.8-63.8C119.3,196.8,122.4,193.7,122.4,189.8L122.4,189.8z"/>
<path class="st0" d="M183.2,40.3c-22.4,0-40.6,18.2-40.6,40.6c0,3.9,3.1,7,7,7s7-3.1,7-7c0-14.7,11.9-26.6,26.6-26.6
	c14.7,0,26.6,11.9,26.6,26.6c0,3.9,3.1,7,7,7s7-3.1,7-7C223.8,58.5,205.7,40.3,183.2,40.3L183.2,40.3z"/>
<path class="st0" d="M143.5,142.6h3c19,0,34.4,15.4,34.4,34.4v22.6c0,19-15.4,34.4-34.4,34.4c-3.9,0-7,3.1-7,7s3.1,7,7,7
	c26.7,0,48.4-21.7,48.4-48.4v-22.6c0-26.7-21.7-48.4-48.4-48.4h-3c-3.9,0-7,3.1-7,7S139.6,142.6,143.5,142.6z"/>
<path class="st0" d="M188,318.6c3.9,0,7-3.1,7-7s-3.1-7-7-7h-40c-22.4,0-40.5-18.1-40.5-40.5c0-3.9-3.1-7-7-7s-7,3.1-7,7
	c0,30.1,24.4,54.5,54.5,54.5H188z"/>
<path class="st0" d="M213.5,401.6c-27.6,0-50-22.4-50-50c0-3.9-3.1-7-7-7s-7,3.1-7,7c0,35.3,28.7,64,64,64c3.9,0,7-3.1,7-7
	S217.4,401.6,213.5,401.6z"/>
<path class="st0" d="M114.2,387.1c-11.7-1.8-19.7-12.6-18-24.3c0.6-3.8-2-7.4-5.8-8c-3.8-0.6-7.4,2-8,5.8c0,0.1,0,0.1,0,0.2
	c-2.9,19.3,10.4,37.3,29.8,40.3c0.3,0.1,0.7,0.1,1,0.1c3.9,0,7-3.1,7-7C120.2,390.5,117.6,387.6,114.2,387.1z"/>
<path class="st0" d="M185,461c-16.6,0-30-13.4-30-30c0-3.9-3.1-7-7-7s-7,3.1-7,7c0,24.3,19.7,44,44,44c3.9,0,7-3.1,7-7
	S188.9,461,185,461z"/>
<path class="st0" d="M484.2,281.6c-4.9,0-9.8,1.3-14,3.8l-90.8-90.8c-1.3-1.3-3.1-2.1-4.9-2.1H263v-43.3h194.4
	c3.9,14.8,19,23.7,33.9,19.9s23.7-19,19.9-33.9c-3.9-14.8-19-23.7-33.9-19.9c-9.7,2.5-17.3,10.1-19.9,19.9H263V104h111.5
	c1.9,0,3.6-0.7,4.9-2.1l30-30c13.6,7.1,30.4,1.8,37.5-11.8c7.1-13.6,1.8-30.4-11.8-37.5c-13.6-7.1-30.4-1.8-37.5,11.8
	c-4.7,8.9-4.1,19.7,1.4,28.1L371.6,90H263V79.4c0-44-35.8-79.7-79.8-79.7c-41.6,0-76.2,32-79.5,73.5c-33.9,5-59,34-59,68.3
	c0,8.4,1.5,16.8,4.6,24.6c-52.2,36.5-65,108.4-28.5,160.7c7.1,10.2,15.9,19.2,25.9,26.7c-9.1,37,13.6,74.3,50.6,83.4
	c2.1,0.5,4.3,0.9,6.4,1.3c3.4,43.9,41.8,76.7,85.7,73.3c41.5-3.3,73.5-37.8,73.5-79.5v-1.2h76.6l29.8,37.9
	c-9,12.5-6.1,29.9,6.5,38.9c12.5,9,29.9,6.1,38.9-6.5c9-12.5,6.1-29.9-6.5-38.9c-8.2-5.9-19-6.8-28.1-2.5l-31.7-40.3
	c-1.3-1.7-3.4-2.7-5.5-2.7h-80v-42h73.9c3.9,14.8,19,23.7,33.9,19.9s23.7-19,19.9-33.9s-19-23.7-33.9-19.9
	c-9.7,2.5-17.3,10.1-19.9,19.9H263v-42h117.9c3.9,14.8,19,23.7,33.9,19.9s23.7-19,19.9-33.9s-19-23.7-33.9-19.9
	c-9.7,2.5-17.3,10.1-19.9,19.9H263v-42h42.1c4.2,14.7,19.6,23.2,34.3,19c14.7-4.2,23.2-19.6,19-34.3c-4.2-14.7-19.6-23.2-34.3-19
	c-9.7,2.8-17.1,10.6-19.4,20.3H263v-42h108.6l88.7,88.7c-7.7,13.2-3.3,30.2,9.9,37.9c13.2,7.7,30.2,3.3,37.9-9.9
	c7.7-13.2,3.3-30.2-9.9-37.9C494,282.9,489.2,281.6,484.2,281.6L484.2,281.6z M484.2,128.5c7.6,0,13.8,6.2,13.8,13.7
	s-6.2,13.8-13.7,13.8s-13.8-6.2-13.8-13.7c0,0,0,0,0,0C470.5,134.7,476.7,128.5,484.2,128.5z M422.2,33.5c7.6,0,13.7,6.2,13.7,13.7
	S429.8,61,422.2,61c-7.6,0-13.7-6.2-13.7-13.7c0,0,0,0,0,0C408.5,39.7,414.7,33.5,422.2,33.5z M405.7,484.6
	c0,7.6-6.2,13.7-13.7,13.7s-13.7-6.2-13.7-13.7s6.2-13.7,13.7-13.7h0C399.6,470.9,405.7,477,405.7,484.6z M363.7,353.9
	c7.6,0,13.8,6.2,13.8,13.7s-6.2,13.8-13.7,13.8s-13.8-6.2-13.8-13.7c0,0,0,0,0,0C350,360,356.2,353.9,363.7,353.9z M407.7,297.9
	c7.6,0,13.8,6.2,13.8,13.7s-6.2,13.8-13.7,13.8s-13.8-6.2-13.8-13.7c0,0,0,0,0,0C394,304,400.2,297.9,407.7,297.9z M331.7,241.2
	c7.6,0,13.8,6.2,13.8,13.7c0,7.6-6.2,13.8-13.7,13.8S318,262.6,318,255c0,0,0,0,0,0C318,247.4,324.1,241.2,331.7,241.2z M249,431.9
	c-0.2,36.3-29.9,65.6-66.2,65.3c-35.9-0.2-65-29.2-65.3-65.2c0-0.1,0-0.2,0-0.3c0-3.7-2.9-6.8-6.6-7c-30.3-1.6-53.6-27.4-52.1-57.7
	c0.3-4.9,1.1-9.6,2.7-14.3c1-3-0.2-6.2-2.7-8C12.3,313.4,0,250.4,31.3,204c8-11.8,18.4-21.9,30.5-29.4c3-1.9,4.2-5.8,2.6-9
	c-13.4-27.2-2.1-60.1,25.1-73.5c6.7-3.3,14-5.2,21.4-5.5c3.7-0.2,6.6-3.3,6.6-7c0-0.1,0-0.2,0-0.3c0.3-36.3,30-65.5,66.3-65.2
	c35.9,0.3,64.9,29.4,65.2,65.3L249,431.9z M484.2,323.1c-7.6,0-13.8-6.2-13.8-13.8s6.2-13.8,13.8-13.8s13.8,6.2,13.8,13.8
	c0,0,0,0,0,0C498,317,491.8,323.1,484.2,323.1L484.2,323.1z"/>
<path class="st0" d="M463.5,180.6c-15.3,0-27.8,12.4-27.8,27.7s12.4,27.8,27.7,27.8s27.8-12.4,27.8-27.7c0,0,0,0,0,0
	C491.2,193.1,478.8,180.6,463.5,180.6z M463.5,222.1c-7.6,0-13.8-6.2-13.8-13.7s6.2-13.8,13.7-13.8s13.8,6.2,13.8,13.7c0,0,0,0,0,0
	C477.2,216,471.1,222.1,463.5,222.1z"/>
<path class="st0" d="M463.5,370.8c-15.3,0-27.8,12.4-27.8,27.7s12.4,27.8,27.7,27.8s27.8-12.4,27.8-27.7c0,0,0,0,0,0
	C491.2,383.3,478.8,370.8,463.5,370.8z M463.5,412.3c-7.6,0-13.8-6.2-13.8-13.7s6.2-13.8,13.7-13.8s13.8,6.2,13.8,13.7c0,0,0,0,0,0
	C477.2,406.2,471.1,412.3,463.5,412.3z"/>
</svg>
