<?xml version="1.0" encoding="utf-8"?>
<!-- Generator: Adobe Illustrator 23.0.3, SVG Export Plug-In . SVG Version: 6.00 Build 0)  -->
<svg version="1.1" id="Layer_1" xmlns="http://www.w3.org/2000/svg" xmlns:xlink="http://www.w3.org/1999/xlink" x="0px" y="0px"
	 viewBox="0 0 512 512" style="enable-background:new 0 0 512 512;" xml:space="preserve">
<style type="text/css">
	.st0{fill:#FFFFFF;}
</style>
<path class="st0" d="M389.6,189.8c0-3.9,3.1-7,7-7c43,0.1,77.8,34.9,77.8,77.8c0,3.9-3.1,7-7,7s-7-3.1-7-7
	c0-35.2-28.6-63.8-63.8-63.8C392.8,196.8,389.6,193.7,389.6,189.8L389.6,189.8z"/>
<path class="st0" d="M328.8,40.3c22.4,0,40.6,18.2,40.6,40.6c0,3.9-3.1,7-7,7s-7-3.1-7-7c0-14.7-11.9-26.6-26.6-26.6
	c-14.7,0-26.6,11.9-26.6,26.6c0,3.9-3.1,7-7,7s-7-3.1-7-7C288.2,58.5,306.4,40.3,328.8,40.3L328.8,40.3z"/>
<path class="st0" d="M368.5,142.6h-3c-19,0-34.4,15.4-34.4,34.4v22.6c0,19,15.4,34.4,34.4,34.4c3.9,0,7,3.1,7,7s-3.1,7-7,7
	c-26.7,0-48.4-21.7-48.4-48.4v-22.6c0-26.7,21.7-48.4,48.4-48.4h3c3.9,0,7,3.1,7,7S372.4,142.6,368.5,142.6z"/>
<path class="st0" d="M324,318.6c-3.9,0-7-3.1-7-7s3.1-7,7-7h40c22.4,0,40.5-18.1,40.5-40.5c0-3.9,3.1-7,7-7s7,3.1,7,7
	c0,30.1-24.4,54.5-54.5,54.5H324z"/>
<path class="st0" d="M298.5,401.6c27.6,0,50-22.4,50-50c0-3.9,3.1-7,7-7s7,3.1,7,7c0,35.3-28.7,64-64,64c-3.9,0-7-3.1-7-7
	S294.7,401.6,298.5,401.6z"/>
<path class="st0" d="M397.9,387.1c11.7-1.8,19.7-12.6,18-24.3c-0.6-3.8,2-7.4,5.8-8c3.8-0.6,7.4,2,8,5.8c0,0.1,0,0.1,0,0.2
	c2.9,19.3-10.4,37.3-29.8,40.3c-0.3,0.1-0.7,0.1-1,0.1c-3.9,0-7-3.1-7-7C391.9,390.5,394.4,387.6,397.9,387.1z"/>
<path class="st0" d="M327,461c16.6,0,30-13.4,30-30c0-3.9,3.1-7,7-7s7,3.1,7,7c0,24.3-19.7,44-44,44c-3.9,0-7-3.1-7-7
	S323.2,461,327,461z"/>
<path class="st0" d="M27.8,281.6c4.9,0,9.8,1.3,14,3.8l90.8-90.8c1.3-1.3,3.1-2.1,4.9-2.1H249v-43.3H54.6
	c-3.9,14.8-19,23.7-33.9,19.9s-23.7-19-19.9-33.9c3.9-14.8,19-23.7,33.9-19.9c9.7,2.5,17.3,10.1,19.9,19.9H249V104H137.5
	c-1.9,0-3.6-0.7-4.9-2.1l-30-30C89,79,72.2,73.7,65.1,60.1C58,46.5,63.3,29.7,76.9,22.6c13.6-7.1,30.4-1.8,37.5,11.8
	c4.7,8.9,4.1,19.7-1.4,28.1L140.4,90H249V79.4c0-44,35.8-79.7,79.8-79.7c41.6,0,76.2,32,79.5,73.5c33.9,5,59,34,59,68.3
	c0,8.4-1.5,16.8-4.6,24.6c52.2,36.5,65,108.4,28.5,160.7c-7.1,10.2-15.9,19.2-25.9,26.7c9.1,37-13.6,74.3-50.6,83.4
	c-2.1,0.5-4.3,0.9-6.4,1.3c-3.4,43.9-41.8,76.7-85.7,73.3c-41.5-3.3-73.5-37.8-73.5-79.5v-1.2h-76.6l-29.8,37.9
	c9,12.5,6.1,29.9-6.5,38.9c-12.5,9-29.9,6.1-38.9-6.5c-9-12.5-6.1-29.9,6.5-38.9c8.2-5.9,19-6.8,28.1-2.5l31.7-40.3
	c1.3-1.7,3.4-2.7,5.5-2.7h80v-42h-73.9c-3.9,14.8-19,23.7-33.9,19.9s-23.7-19-19.9-33.9s19-23.7,33.9-19.9
	c9.7,2.5,17.3,10.1,19.9,19.9H249v-42H131.1c-3.9,14.8-19,23.7-33.9,19.9s-23.7-19-19.9-33.9s19-23.7,33.9-19.9
	c9.7,2.5,17.3,10.1,19.9,19.9H249v-42H207c-4.2,14.7-19.6,23.2-34.3,19c-14.7-4.2-23.2-19.6-19-34.3c4.2-14.7,19.6-23.2,34.3-19
	c9.7,2.8,17.1,10.6,19.4,20.3H249v-42H140.4l-88.7,88.7c7.7,13.2,3.3,30.2-9.9,37.9c-13.2,7.7-30.2,3.3-37.9-9.9
	c-7.7-13.2-3.3-30.2,9.9-37.9C18,282.9,22.9,281.6,27.8,281.6L27.8,281.6z M27.8,128.5c-7.6,0-13.8,6.2-13.8,13.7S20.2,156,27.8,156
	s13.8-6.2,13.8-13.7c0,0,0,0,0,0C41.5,134.7,35.4,128.5,27.8,128.5z M89.8,33.5c-7.6,0-13.7,6.2-13.7,13.7S82.2,61,89.8,61
	c7.6,0,13.7-6.2,13.7-13.7c0,0,0,0,0,0C103.5,39.7,97.4,33.5,89.8,33.5z M106.3,484.6c0,7.6,6.2,13.7,13.7,13.7s13.7-6.2,13.7-13.7
	s-6.2-13.7-13.7-13.7h0C112.4,470.9,106.3,477,106.3,484.6z M148.3,353.9c-7.6,0-13.8,6.2-13.8,13.7s6.2,13.8,13.7,13.8
	s13.8-6.2,13.8-13.7c0,0,0,0,0,0C162,360,155.9,353.9,148.3,353.9z M104.3,297.9c-7.6,0-13.8,6.2-13.8,13.7s6.2,13.8,13.7,13.8
	s13.8-6.2,13.8-13.7c0,0,0,0,0,0C118,304,111.9,297.9,104.3,297.9z M180.3,241.2c-7.6,0-13.8,6.2-13.8,13.7
	c0,7.6,6.2,13.8,13.7,13.8s13.8-6.2,13.8-13.7c0,0,0,0,0,0C194.1,247.4,187.9,241.2,180.3,241.2z M263,431.9
	c0.2,36.3,29.9,65.6,66.2,65.3c35.9-0.2,65-29.2,65.3-65.2c0-0.1,0-0.2,0-0.3c0-3.7,2.9-6.8,6.6-7c30.3-1.6,53.6-27.4,52.1-57.7
	c-0.3-4.9-1.1-9.6-2.7-14.3c-1-3,0.2-6.2,2.7-8c46.4-31.3,58.7-94.3,27.4-140.8c-8-11.8-18.4-21.9-30.5-29.4c-3-1.9-4.2-5.8-2.6-9
	c13.4-27.2,2.1-60.1-25.1-73.5c-6.7-3.3-14-5.2-21.4-5.5c-3.7-0.2-6.6-3.3-6.6-7c0-0.1,0-0.2,0-0.3c-0.3-36.3-30-65.5-66.3-65.2
	c-35.9,0.3-64.9,29.4-65.2,65.3L263,431.9z M27.8,323.1c7.6,0,13.8-6.2,13.8-13.8s-6.2-13.8-13.8-13.8S14,301.8,14,309.4
	c0,0,0,0,0,0C14,317,20.2,323.1,27.8,323.1L27.8,323.1z"/>
<path class="st0" d="M48.5,180.6c15.3,0,27.8,12.4,27.8,27.7s-12.4,27.8-27.7,27.8s-27.8-12.4-27.8-27.7c0,0,0,0,0,0
	C20.8,193.1,33.2,180.6,48.5,180.6z M48.5,222.1c7.6,0,13.8-6.2,13.8-13.7s-6.2-13.8-13.7-13.8s-13.8,6.2-13.8,13.7c0,0,0,0,0,0
	C34.8,216,40.9,222.1,48.5,222.1z"/>
<path class="st0" d="M48.5,370.8c15.3,0,27.8,12.4,27.8,27.7s-12.4,27.8-27.7,27.8s-27.8-12.4-27.8-27.7c0,0,0,0,0,0
	C20.8,383.3,33.2,370.8,48.5,370.8z M48.5,412.3c7.6,0,13.8-6.2,13.8-13.7s-6.2-13.8-13.7-13.8s-13.8,6.2-13.8,13.7c0,0,0,0,0,0
	C34.8,406.2,40.9,412.3,48.5,412.3z"/>
</svg>
